{"title":"Max.Manus.2008.SWESUB.DVDRip.XviD.-Zen_Bud.avi","uid":5668206,"size":1467957248,"categoryP":"video","categoryS":"movies","magnet":"?xt=urn:btih:616a98b2c48dd7fabb7fce4f7f55a2171f2a73ff&amp;dn=Max.Manus.2008.SWESUB.DVDRip.XviD.-Zen_Bud.avi&amp;tr=udp%3A%2F%2Ftracker.openbittorrent.com%3A80&amp;tr=udp%3A%2F%2Fopen.demonii.com%3A1337&amp;tr=udp%3A%2F%2Ftracker.coppersurfer.tk%3A6969&amp;tr=udp%3A%2F%2Fexodus.desync.com%3A6969","seeders":1,"leechers":0,"uploader":"Zen_Bud","files":-1,"time":1278228828,"description":"General\nComplete name                    : Max.Manus.avi\nFormat                           : AVI\nFile size                        : 1.37 GiB\nDuration                         : 1h 52mn\nOverall bit rate                 : 1 732 Kbps\nWriting application              : VirtualDubMod 1.5.10.2 (build 2542/release)\nWriting library                  : VirtualDubMod build 2542/release\n\nVideo\nID                               : 0\nFormat                           : MPEG-4 Visual\nCodec ID/Hint                    : XviD\nDuration                         : 1h 52mn\nBit rate                         : 1 594 Kbps\nWidth                            : 720 pixels\nHeight                           : 384 pixels\nDisplay aspect ratio             : 1.875\nStream size                      : 1.26 GiB (92%)\nWriting library                  : XviD 1.2.1 (UTC 2008-12-04)\n\nAudio\n\nFormat                           : MPEG Audio\nCodec ID/Hint                    : MP3\nDuration                         : 1h 52mn\nBit rate                         : 128 Kbps\nChannel(s)                       : 2 channels\nSampling rate                    : 48.0 KHz\nStream size                      : 103 MiB (7%)\nWriting library                  : LAME3.97 \n\n\n","torrent":{"xt":"urn:btih:616a98b2c48dd7fabb7fce4f7f55a2171f2a73ff","amp;dn":"Max.Manus.2008.SWESUB.DVDRip.XviD.-Zen_Bud.avi","amp;tr":["udp%3A%2F%2Ftracker.openbittorrent.com%3A80","udp%3A%2F%2Fopen.demonii.com%3A1337","udp%3A%2F%2Ftracker.coppersurfer.tk%3A6969","udp%3A%2F%2Fexodus.desync.com%3A6969"],"infoHash":"616a98b2c48dd7fabb7fce4f7f55a2171f2a73ff","infoHashBuffer":{"type":"Buffer","data":[97,106,152,178,196,141,215,250,187,127,206,79,127,85,162,23,31,42,115,255]},"announce":[],"urlList":[]}}